<svg id="Capa_1" enable-background="new 0 0 512 512" height="512" viewBox="0 0 512 512" width="512" xmlns="http://www.w3.org/2000/svg"><g><path d="m340.199 208.191h-168.398c-9.711 0-17.583-7.872-17.583-17.583v-105.138c0-35.119 28.572-63.69 63.691-63.69h76.182c35.119 0 63.691 28.572 63.691 63.69v105.138c0 9.711-7.872 17.583-17.583 17.583zm-150.815-35.166h133.231v-87.555c0-15.728-12.796-28.524-28.525-28.524h-76.182c-15.729 0-28.525 12.796-28.525 28.524v87.555z" fill="#ffe07d"/><g fill="#ffd064"><path d="m322.616 85.47v87.555h15.633v-87.555c0-15.728-12.796-28.524-28.525-28.524h-15.633c15.729 0 28.525 12.796 28.525 28.524z"/><path d="m169.851 190.608v-105.138c0-35.119 28.571-63.69 63.691-63.69h-15.633c-35.119 0-63.691 28.571-63.691 63.69v105.138c0 9.711 7.872 17.583 17.583 17.583h15.633c-9.711 0-17.583-7.872-17.583-17.583z"/></g><path d="m499.576 172.4v264.921c0 29.216-23.684 52.9-52.9 52.9h-381.352c-29.216 0-52.9-23.684-52.9-52.9v-264.921z" fill="#be694f"/><path d="m114.205 490.218h-48.882c-29.216 0-52.9-23.684-52.9-52.9v-264.921h48.882v264.921c.001 29.216 23.685 52.9 52.9 52.9z" fill="#aa593d"/><path d="m499.576 172.4v127.588c-4.574 4.224-10.199 7.386-16.545 9.014l-217.399 56.011c-6.315 1.628-12.949 1.628-19.264 0l-217.399-56.012c-6.346-1.628-11.971-4.79-16.545-9.014v-127.587z" fill="#aa593d"/><path d="m473.4 110.008h-434.8c-21.318 0-38.6 17.282-38.6 38.6v102.459c0 17.609 11.917 32.986 28.969 37.379l217.4 56.015c6.318 1.628 12.945 1.628 19.262 0l217.4-56.015c17.052-4.394 28.969-19.77 28.969-37.379v-102.459c0-21.319-17.282-38.6-38.6-38.6z" fill="#be694f"/><path d="m61.564 296.848-32.595-8.396c-17.05-4.399-28.969-19.769-28.969-37.385v-102.451c0-21.325 17.286-38.601 38.601-38.601h44.195c-21.314 0-38.601 18.626-38.601 41.609v110.466c0 14.299 6.758 27.228 17.369 34.758z" fill="#aa593d"/><g><path d="m125.877 375.826c-22.465 0-40.676-18.211-40.676-40.676v-32.98c0-22.464 18.211-40.676 40.676-40.676 22.464 0 40.676 18.211 40.676 40.676v32.98c0 22.465-18.211 40.676-40.676 40.676z" fill="#ffe07d"/><path d="m131.202 375.471c-1.74.23-3.52.35-5.32.35-22.47 0-40.68-18.21-40.68-40.67v-32.98c0-22.47 18.21-40.68 40.68-40.68 1.8 0 3.58.12 5.32.35-19.96 2.6-35.36 19.66-35.36 40.33v32.98c0 20.66 15.4 37.72 35.36 40.32z" fill="#ffd064"/><path d="m125.877 350.481c-8.454 0-15.331-6.877-15.331-15.331v-32.98c0-8.454 6.877-15.331 15.33-15.331 8.454 0 15.331 6.877 15.331 15.331v32.98c0 8.454-6.877 15.331-15.33 15.331z" fill="#2b4d66"/><path d="m125.877 358.208c-12.713 0-23.056-10.343-23.056-23.057v-32.98c0-12.714 10.343-23.057 23.056-23.057s23.056 10.344 23.056 23.057v32.98c.001 12.714-10.342 23.057-23.056 23.057zm0-63.642c-4.192 0-7.604 3.411-7.604 7.605v32.98c0 4.193 3.411 7.604 7.604 7.604 4.192 0 7.604-3.411 7.604-7.604v-32.98c0-4.193-3.412-7.605-7.604-7.605z" fill="#ffd064"/><g><path d="m386.123 375.826c-22.465 0-40.676-18.211-40.676-40.676v-32.98c0-22.464 18.211-40.676 40.676-40.676 22.464 0 40.676 18.211 40.676 40.676v32.98c-.001 22.465-18.212 40.676-40.676 40.676z" fill="#ffe07d"/><path d="m386.123 350.481c-8.454 0-15.331-6.877-15.331-15.331v-32.98c0-8.454 6.877-15.331 15.33-15.331 8.454 0 15.331 6.877 15.331 15.331v32.98c0 8.454-6.877 15.331-15.33 15.331z" fill="#2b4d66"/><path d="m386.123 358.208c-12.713 0-23.056-10.343-23.056-23.057v-32.98c0-12.714 10.343-23.057 23.056-23.057s23.056 10.344 23.056 23.057v32.98c0 12.714-10.343 23.057-23.056 23.057zm0-63.642c-4.192 0-7.604 3.411-7.604 7.605v32.98c0 4.193 3.411 7.604 7.604 7.604 4.192 0 7.604-3.411 7.604-7.604v-32.98c-.001-4.193-3.412-7.605-7.604-7.605z" fill="#ffd064"/></g><path d="m391.447 375.471c-1.74.23-3.52.35-5.32.35-22.47 0-40.68-18.21-40.68-40.67v-32.98c0-22.47 18.21-40.68 40.68-40.68 1.8 0 3.58.12 5.32.35-19.96 2.6-35.36 19.66-35.36 40.33v32.98c0 20.66 15.4 37.72 35.36 40.32z" fill="#ffd064"/></g></g></svg>