<svg id="Capa_1" enable-background="new 0 0 491 491" height="512" viewBox="0 0 491 491" width="512" xmlns="http://www.w3.org/2000/svg"><g><g><path d="m483.5 156.59v246.82c0 13.58-11.01 24.59-24.59 24.59h-426.82c-13.58 0-24.59-11.01-24.59-24.59v-246.82c0-13.58 11.01-24.59 24.59-24.59h426.82c13.58 0 24.59 11.01 24.59 24.59z" fill="#a44f3e"/><path d="m456.47 156.59v246.82c0 13.58-11.01 24.59-24.59 24.59h-399.79c-13.58 0-24.59-11.01-24.59-24.59v-246.82c0-13.58 11.01-24.59 24.59-24.59h399.79c13.58 0 24.59 11.01 24.59 24.59z" fill="#bb5d4c"/><path d="m78.222 132h79.772v296h-79.772z" fill="#a44f3e"/><path d="m312.393 132h79.507v296h-79.507z" fill="#a44f3e"/><g fill="#d8aa5e"><path d="m483.5 156.59v40.14c-1.81.18-3.64.27-5.5.27-30.65 0-55.5-24.85-55.5-55.5 0-3.24.28-6.41.82-9.5h35.59c13.58 0 24.59 11.01 24.59 24.59z"/><path d="m483.5 364.27v39.14c0 13.58-11.01 24.59-24.59 24.59h-35.76c-.43-2.77-.65-5.61-.65-8.5 0-30.65 24.85-55.5 55.5-55.5 1.86 0 3.69.09 5.5.27z"/><path d="m69.5 141.5c0 30.65-24.85 55.5-55.5 55.5-2.2 0-4.37-.13-6.5-.38v-40.03c0-13.58 11.01-24.59 24.59-24.59h36.59c.54 3.09.82 6.26.82 9.5z"/><path d="m69.5 419.5c0 2.89-.22 5.73-.65 8.5h-36.76c-13.58 0-24.59-11.01-24.59-24.59v-39.03c2.13-.25 4.3-.38 6.5-.38 30.65 0 55.5 24.85 55.5 55.5z"/></g><path d="m100.994 132h57v296h-57z" fill="#e8ad8c"/><path d="m129.542 132h28.453v296h-28.453z" fill="#e19974"/><path d="m93.394 332h72.2v38h-72.2z" fill="#d7d0d6"/><path d="m334.9 132h57v296h-57z" fill="#e8ad8c"/><path d="m363.363 132h28.537v296h-28.537z" fill="#e19974"/><path d="m327.3 332h72.2v38h-72.2z" fill="#d7d0d6"/><path d="m158.5 37h176v33h-176z" fill="#d8aa5e"/><path d="m186.5 164h75v26h-75z" fill="#5de1c4" transform="matrix(.971 .239 -.239 .971 48.773 -48.39)"/><ellipse cx="250.53" cy="245.116" fill="#0473ce" rx="56" ry="21.5" transform="matrix(.98 -.201 .201 .98 -44.144 55.341)"/><path d="m196.5 320h100v75h-100z" fill="#ffefd2"/><path d="m7.487 233h49.919v61.56h-49.919z" fill="#fef056"/><path d="m157.97 428-7.47 26h-79l-7.47-26z" fill="#596c76"/><path d="m428.97 428-7.47 26h-79l-7.47-26z" fill="#596c76"/></g><g><path d="m458.91 124.5h-87.91v-43.721c0-19.165-12.944-34.798-29-35.258v-8.521c0-4.142-3.357-7.5-7.5-7.5h-176c-4.142 0-7.5 3.358-7.5 7.5v8.522c-16.056.459-29 16.093-29 35.258v43.72h-89.91c-17.694 0-32.09 14.396-32.09 32.09v246.82c0 17.695 14.396 32.09 32.09 32.09h26.292l5.91 20.571c.924 3.215 3.864 5.429 7.208 5.429h79c3.345 0 6.285-2.214 7.208-5.429l5.91-20.571h165.764l5.91 20.571c.923 3.215 3.863 5.429 7.208 5.429h79c3.345 0 6.285-2.214 7.208-5.429l5.91-20.571h24.292c17.694 0 32.09-14.396 32.09-32.09v-246.82c0-17.694-14.396-32.09-32.09-32.09zm0 15c9.424 0 17.09 7.667 17.09 17.09v32.869c-25.543-1.053-46-22.162-46-47.959 0-.667.014-1.334.042-2zm-67.01 104.063c4.143 0 7.5-3.358 7.5-7.5v-96.563h15.643c-.021.667-.043 1.333-.043 2 0 34.068 27.186 61.887 61 62.949v152.102c-33.814 1.062-61 28.882-61 62.949 0 .333.014.667.019 1h-15.619v-43h.1c4.143 0 7.5-3.358 7.5-7.5v-38c0-4.142-3.357-7.5-7.5-7.5h-.1v-52.932c0-4.142-3.357-7.5-7.5-7.5s-7.5 3.358-7.5 7.5v52.932h-42v-185h42v96.563c0 4.142 3.358 7.5 7.5 7.5zm.1 95.937v23h-.1-21v-11.5c0-4.142-3.357-7.5-7.5-7.5s-7.5 3.358-7.5 7.5v11.5h-21-.1v-23h.101 57zm-49.6 38h13.5v4.5c0 4.142 3.357 7.5 7.5 7.5s7.5-3.358 7.5-7.5v-4.5h13.5v43h-42zm-176.4-333h161v18h-161zm-29 36.279c0-10.657 6.341-19.684 14-20.227v9.448c0 4.142 3.358 7.5 7.5 7.5h176c4.143 0 7.5-3.358 7.5-7.5v-9.448c7.659.543 14 9.57 14 20.227v43.721h-76.151c-4.143 0-7.5 3.358-7.5 7.5s3.357 7.5 7.5 7.5h47.551v185h-.1c-4.143 0-7.5 3.358-7.5 7.5v38c0 4.142 3.357 7.5 7.5 7.5h.101v43h-161.901v-43h.1c4.142 0 7.5-3.358 7.5-7.5v-38c0-4.142-3.358-7.5-7.5-7.5h-.1v-185h79.319c4.142 0 7.5-3.358 7.5-7.5s-3.357-7.5-7.5-7.5h-107.819zm-60.019 339.721c.005-.333.019-.667.019-1 0-34.403-27.723-62.436-62-62.975v-54.465h42.406c4.142 0 7.5-3.358 7.5-7.5v-61.56c0-4.142-3.358-7.5-7.5-7.5h-42.406v-21.025c34.277-.538 62-28.572 62-62.975 0-.667-.022-1.333-.043-2h16.543v185h-.1c-4.142 0-7.5 3.358-7.5 7.5v38c0 4.142 3.358 7.5 7.5 7.5h.1v43zm-61.981-180h34.906v46.56h-34.906zm143.1 99v23h-.1-21v-11.5c0-4.142-3.358-7.5-7.5-7.5s-7.5 3.358-7.5 7.5v11.5h-21-.1v-23h.1 57zm-49.6 38h13.5v4.5c0 4.142 3.358 7.5 7.5 7.5s7.5-3.358 7.5-7.5v-4.5h13.5v43h-42zm42-238v185h-42v-185zm-135.5 17.09c0-9.423 7.667-17.09 17.09-17.09h29.869c.027.666.042 1.333.042 2 0 26.133-20.993 47.455-47 47.99v-32.9zm0 246.82v-31.9c26.007.535 47 21.857 47 47.99 0 .333-.003.667-.01 1h-29.9c-9.423 0-17.09-7.667-17.09-17.09zm129.852 43.09h-67.704l-3.16-11h74.023zm271 0h-67.703l-3.16-11h74.023zm60.148-43.09c0 9.424-7.666 17.09-17.09 17.09h-28.9c-.007-.333-.01-.667-.01-1 0-25.797 20.457-46.906 46-47.959z"/><path d="m183.409 153.625-6.212 25.247c-.475 1.932-.164 3.973.866 5.675s2.694 2.925 4.625 3.4l72.829 17.918c.592.146 1.193.217 1.792.217 1.357 0 2.702-.369 3.883-1.083 1.702-1.03 2.925-2.693 3.4-4.625l6.211-25.247c.989-4.022-1.47-8.085-5.491-9.074l-72.828-17.918c-4.021-.992-8.085 1.469-9.075 5.49zm12.774 10.867 58.263 14.334-2.628 10.681-58.263-14.334z"/><path d="m204.645 231.862c-16.657 10.651-17.375 20.871-16.319 26.014 1.837 8.957 10.736 13.783 18.821 16.075 15.747 4.463 33.401 2.817 49.211-.426 30.912-6.341 60.203-22.518 56.378-41.168-3.826-18.651-37.121-21.989-68.032-15.649-15.532 3.186-29.759 8.567-40.059 15.154zm67.777-3.147c15.883 0 25.051 3.892 25.62 6.656.816 3.98-13.837 17.129-44.698 23.46-13.576 2.785-27.18 3.417-37.322 1.736-9.254-1.534-12.756-4.506-13.001-5.705-.246-1.199 1.803-5.31 9.706-10.363 8.663-5.539 21.417-10.313 34.992-13.097 9.427-1.934 17.715-2.687 24.703-2.687z"/><path d="m296.5 312.5h-100c-4.142 0-7.5 3.358-7.5 7.5v75c0 4.142 3.358 7.5 7.5 7.5h100c4.143 0 7.5-3.358 7.5-7.5v-75c0-4.142-3.357-7.5-7.5-7.5zm-7.5 75h-85v-60h85z"/><path d="m237.5 351.5h18c4.143 0 7.5-3.358 7.5-7.5s-3.357-7.5-7.5-7.5h-18c-4.142 0-7.5 3.358-7.5 7.5s3.358 7.5 7.5 7.5z"/><path d="m227.5 375.5h39c4.143 0 7.5-3.358 7.5-7.5s-3.357-7.5-7.5-7.5h-39c-4.142 0-7.5 3.358-7.5 7.5s3.358 7.5 7.5 7.5z"/></g></g></svg>